mtllib materials.mtl
v 8.940697E-08 0.1199999 0.1100005
v 0.05500031 0.1199999 0.09526315
v 0.05499993 0.06999975 0.09526277
v -5.960464E-08 0.06999976 0.11
v 0.09526326 0.1199999 0.05500015
v 0.09526275 0.06999976 0.055
v 0.1100005 0.1199999 -9.685755E-08
v 0.11 0.06999978 9.313226E-09
v 0.09526332 0.1199999 -0.0550001
v 0.09526278 0.06999981 -0.055
v 0.05500016 0.1199998 -0.09526328
v 0.05500002 0.06999985 -0.0952628
v -1.043081E-07 0.1199997 -0.1100005
v 0 0.06999988 -0.11
v -0.05500035 0.1199997 -0.09526316
v -0.05500001 0.06999989 -0.09526283
v -0.09526327 0.1199997 -0.05500015
v -0.0952628 0.06999988 -0.05500006
v -0.1100005 0.1199998 8.195639E-08
v -0.11 0.06999986 -6.705523E-08
v -0.09526318 0.1199998 0.05500031
v -0.09526284 0.06999983 0.05499993
v -0.05500016 0.1199999 0.09526327
v -0.05500003 0.06999979 0.09526276
v -0.08573689 0.1199999 0.04950029
v -0.04950014 0.12 0.08573695
v 0.03572452 -0.1200001 0.06187792
v -1.192093E-07 -0.1200001 0.07145029
v 0.06187679 -0.1200001 0.03572567
v 0.07144918 -0.1200001 1.061708E-06
v 0.06187682 -0.1200001 -0.03572359
v 0.03572457 -0.1200001 -0.06187583
v -5.960464E-08 -0.1200001 -0.07144824
v -0.03572471 -0.1200001 -0.06187586
v -0.06187696 -0.1200001 -0.03572362
v -0.07144935 -0.1200001 1.007691E-06
v -0.06187697 -0.1200001 0.03572562
v -0.03572473 -0.1200001 0.06187792
v -0.09900049 0.1199999 8.195639E-08
v -0.08573699 0.1199999 -0.04950015
v -0.04950035 0.1199999 -0.0857369
v -1.043081E-07 0.1199998 -0.09900049
v 0.04950017 0.1199999 -0.08573702
v 0.08573702 0.12 -0.0495001
v 0.09900047 0.12 -9.685755E-08
v 0.08573699 0.12 0.04950013
v 0.04950032 0.12 0.0857368
v 8.940697E-08 0.1200001 0.09900045
v -0.08573656 0.06999995 0.04949988
v -0.04950002 0.06999991 0.08573645
v -0.09900002 0.06999998 -9.313226E-08
v -0.08573652 0.07 -0.04950006
v -0.0495 0.07 -0.08573657
v 0 0.06999999 -0.09900001
v 0.04950002 0.06999997 -0.08573656
v 0.08573653 0.06999993 -0.04950002
v 0.09899999 0.0699999 -9.313226E-09
v 0.08573647 0.06999988 0.04949994
v 0.04949994 0.06999988 0.08573645
v -5.960464E-08 0.06999989 0.09899993
v -0.06187697 -0.07999991 0.03572224
v -0.03572472 -0.07999992 0.06187456
v -0.07144935 -0.0799999 -2.367422E-06
v -0.06187695 -0.07999989 -0.03572697
v -0.0357247 -0.07999989 -0.06187922
v -5.960464E-08 -0.07999991 -0.07145158
v 0.03572461 -0.07999991 -0.06187921
v 0.06187683 -0.07999992 -0.03572693
v 0.07144921 -0.07999993 -2.298504E-06
v 0.06187682 -0.07999994 0.03572228
v 0.03572457 -0.07999994 0.06187456
v -7.450581E-08 -0.07999992 0.0714469
vn 0.2588187 -2.052407E-06 0.965926
vn 0.7071062 -1.382985E-06 0.7071074
vn 0.9659258 -8.771009E-07 0.2588195
vn 0.9659259 -1.047593E-05 -0.2588187
vn 0.7071068 4.23431E-08 -0.7071067
vn 0.2588193 4.379264E-07 -0.9659258
vn -0.258819 4.920831E-07 -0.9659259
vn -0.7071068 1.327136E-06 -0.7071068
vn -0.9659256 6.553552E-07 -0.2588195
vn -0.965926 -3.817246E-07 0.2588189
vn -0.7071066 -5.337703E-07 0.7071069
vn -0.2588192 -4.159233E-07 0.9659258
vn -8.575351E-06 1 9.319239E-06
vn 0.2539873 -0.1923212 0.947894
vn 0.693906 -0.1923228 0.6939065
vn 0.9478931 -0.1923252 0.2539875
vn 0.9478928 -0.1923278 -0.2539868
vn 0.6939054 -0.1923302 -0.6939051
vn 0.253987 -0.1923313 -0.947892
vn -0.2539868 -0.1923312 -0.9478921
vn -0.6939052 -0.1923297 -0.6939055
vn -0.9478927 -0.1923272 -0.2539876
vn -0.9478934 -0.1923246 0.2539868
vn -0.6939067 -0.1923222 0.6939061
vn -0.2539876 -0.1923212 0.9478939
vn -3.49691E-07 -1 -5.245367E-07
vn -1.184215E-05 1 3.708938E-06
vn -1.184217E-05 1 -2.537953E-06
vn -1.627414E-05 1 -1.763893E-05
vn -2.917104E-06 1 -1.164461E-05
vn 3.616492E-06 1 -1.2037E-05
vn 9.27476E-06 1 -8.181075E-06
vn 1.254156E-05 1 -2.667972E-06
vn 1.254154E-05 1 3.578921E-06
vn 9.274727E-06 1 9.290532E-06
vn 3.616474E-06 1 1.248298E-05
vn -2.917099E-06 1 1.241224E-05
vn 0.7071067 1.486854E-06 -0.7071069
vn 0.9659259 1.602644E-07 -0.2588188
vn 0.965926 9.507503E-06 0.2588183
vn 0.707108 9.534588E-06 0.7071056
vn 0.2588196 9.567653E-06 0.9659258
vn -0.2588173 9.772937E-06 0.9659263
vn -0.7071068 -1.079824E-06 0.7071067
vn -0.9659259 1.03838E-05 0.2588186
vn -0.9659261 1.095427E-05 -0.2588181
vn -0.7071062 1.595524E-06 -0.7071072
vn -0.2588207 1.062377E-05 -0.9659254
vn 0.2588192 5.112488E-07 -0.9659258
vn 0.6962336 0.1746955 -0.6962329
vn 0.9510736 0.1746888 -0.2548391
vn 0.9510747 0.1746812 0.2548403
vn 0.6962357 0.1746748 0.696236
vn 0.2548395 0.1746712 0.9510767
vn -0.2548398 0.1746714 0.9510766
vn -0.696236 0.1746754 0.6962355
vn -0.9510748 0.1746819 0.2548392
vn -0.9510732 0.1746895 -0.2548397
vn -0.696233 0.1746958 -0.6962335
vn -0.2548386 0.1746996 -0.9510717
vn 0.254839 0.1746992 -0.9510717
vn 3.49691E-07 1 5.245367E-07
usemtl mat21
f 4//1 3//1 2//1 1//1
f 3//2 6//2 5//2 2//2
f 6//3 8//3 7//3 5//3
f 8//4 10//4 9//4 7//4
f 10//5 12//5 11//5 9//5
f 12//6 14//6 13//6 11//6
f 14//7 16//7 15//7 13//7
f 16//8 18//8 17//8 15//8
f 18//9 20//9 19//9 17//9
f 20//10 22//10 21//10 19//10
f 22//11 24//11 23//11 21//11
f 24//12 4//12 1//12 23//12
f 26//13 25//13 21//13 23//13
f 28//14 27//14 3//14 4//14
f 27//15 29//15 6//15 3//15
f 29//16 30//16 8//16 6//16
f 30//17 31//17 10//17 8//17
f 31//18 32//18 12//18 10//18
f 32//19 33//19 14//19 12//19
f 33//20 34//20 16//20 14//20
f 34//21 35//21 18//21 16//21
f 35//22 36//22 20//22 18//22
f 36//23 37//23 22//23 20//23
f 37//24 38//24 24//24 22//24
f 38//25 28//25 4//25 24//25
f 38//26 37//26 36//26 35//26 34//26 33//26 32//26 31//26 30//26 29//26 27//26 28//26
f 25//27 39//27 19//27 21//27
f 39//28 40//28 17//28 19//28
f 40//29 41//29 15//29 17//29
f 41//30 42//30 13//30 15//30
f 42//31 43//31 11//31 13//31
f 43//32 44//32 9//32 11//32
f 44//33 45//33 7//33 9//33
f 45//34 46//34 5//34 7//34
f 46//35 47//35 2//35 5//35
f 47//36 48//36 1//36 2//36
f 48//37 26//37 23//37 1//37
f 50//38 49//38 25//38 26//38
f 49//39 51//39 39//39 25//39
f 51//40 52//40 40//40 39//40
f 52//41 53//41 41//41 40//41
f 53//42 54//42 42//42 41//42
f 54//43 55//43 43//43 42//43
f 55//44 56//44 44//44 43//44
f 56//45 57//45 45//45 44//45
f 57//46 58//46 46//46 45//46
f 58//47 59//47 47//47 46//47
f 59//48 60//48 48//48 47//48
f 60//49 50//49 26//49 48//49
f 62//50 61//50 49//50 50//50
f 61//51 63//51 51//51 49//51
f 63//52 64//52 52//52 51//52
f 64//53 65//53 53//53 52//53
f 65//54 66//54 54//54 53//54
f 66//55 67//55 55//55 54//55
f 67//56 68//56 56//56 55//56
f 68//57 69//57 57//57 56//57
f 69//58 70//58 58//58 57//58
f 70//59 71//59 59//59 58//59
f 71//60 72//60 60//60 59//60
f 72//61 62//61 50//61 60//61
f 72//62 71//62 70//62 69//62 68//62 67//62 66//62 65//62 64//62 63//62 61//62 62//62
