# This file uses meters as units for non-parametric coordinates.

mtllib trashbag.mtl
g default
v -3.385601 12.247499 -3.208400
v -3.366501 12.156498 -0.000000
v 0.222300 12.426998 -0.000000
v 0.223398 12.421198 -0.849100
v 6.070499 5.706199 -0.000000
v 10.947800 -1.577501 -0.000000
v 7.741299 -2.250701 -7.468300
v 0.780798 6.282799 -3.530299
v 0.543598 7.412399 -0.837799
v -2.164501 6.432199 -2.622000
v -2.010101 5.696798 -4.645499
v -6.759602 10.954998 -0.849100
v -6.760902 10.960798 -0.000000
v -4.801003 5.110699 -3.530299
v -5.038200 6.240398 -0.837799
v -9.412003 2.455299 -0.000000
v -7.741302 -5.501702 -7.468300
v -10.947800 -6.175001 -0.000000
v -3.385601 12.247499 3.208400
v -6.759602 10.954998 0.849100
v -7.741302 -5.501702 7.468300
v -4.801003 5.110699 3.530300
v -5.038200 6.240398 0.837801
v -2.164501 6.432199 2.622000
v -2.010101 5.696798 4.645500
v 0.223398 12.421198 0.849100
v 0.780798 6.282799 3.530300
v 0.543598 7.412399 0.837801
v 7.741299 -2.250701 7.468300
v 2.362799 -15.129101 -0.000000
v 1.670799 -11.833201 -7.468300
v 9.411999 -10.207701 -0.000000
v -0.000002 -3.876202 -10.561800
v -6.070499 -13.458601 -0.000000
v 1.670799 -11.833201 7.468300
v -0.000002 -3.876202 10.561800
v 0.526699 7.493299 -0.000000
v -5.055099 6.321298 -0.000000
v -9.018803 15.211498 -1.515300
v -4.342300 16.803898 -4.742399
v -9.020599 15.219999 -0.000000
v -9.018803 15.211498 1.515301
v -4.342300 16.803898 4.742401
v 0.579800 17.226898 1.515301
v 0.577999 17.235498 -0.000000
v 0.579800 17.226898 -1.515300
v -8.383701 15.437998 -1.182200
v -4.359001 16.883598 -3.976100
v -8.384502 15.442999 -0.000000
v -8.383701 15.437998 1.182201
v -4.359001 16.883598 3.976101
v -0.092802 17.178898 1.182201
v -0.094002 17.183798 -0.000000
v -0.092802 17.178898 -1.182200
vt 0.750000 0.750000
vt 0.625000 1.000000
vt 0.562500 0.875000
vt 0.625000 0.750000
vt 0.500000 0.750000
vt 0.500000 0.500000
vt 0.625000 0.500000
vt 0.687500 0.625000
vt 0.750000 0.625000
vt 0.875000 1.000000
vt 0.875000 0.750000
vt 0.937500 0.875000
vt 0.812500 0.625000
vt 1.000000 0.750000
vt 0.875000 0.500000
vt 1.000000 0.500000
vt 0.250000 0.750000
vt 0.125000 1.000000
vt 0.062500 0.875000
vt 0.125000 0.750000
vt 0.000000 0.750000
vt 0.000000 0.500000
vt 0.125000 0.500000
vt 0.187500 0.625000
vt 0.250000 0.625000
vt 0.375000 0.750000
vt 0.437500 0.875000
vt 0.375000 1.000000
vt 0.312500 0.625000
vt 0.375000 0.500000
vt 0.625000 0.000000
vt 0.750000 0.250000
vt 0.500000 0.250000
vt 0.750000 0.500000
vt 0.875000 0.000000
vt 1.000000 0.250000
vt 0.125000 0.000000
vt 0.250000 0.250000
vt 0.000000 0.250000
vt 0.250000 0.500000
vt 0.375000 0.000000
vt 0.625000 0.750000
vt 0.750000 0.750000
vt 0.750000 0.750000
vt 0.750000 0.750000
vt 0.875000 0.750000
vt 0.125000 0.750000
vt 0.250000 0.750000
vt 0.250000 0.750000
vt 0.250000 0.750000
vt 0.375000 0.750000
vt 0.562500 0.875000
vt 0.625000 0.750000
vt 0.750000 0.750000
vt 0.625000 0.750000
vt 0.875000 0.750000
vt 0.937500 0.875000
vt 0.875000 0.750000
vt 0.062500 0.875000
vt 0.125000 0.750000
vt 0.250000 0.750000
vt 0.125000 0.750000
vt 0.375000 0.750000
vt 0.437500 0.875000
vt 0.375000 0.750000
vt 0.750000 0.750000
vt 0.875000 0.750000
vt 0.875000 0.750000
vt 0.750000 0.750000
vt 0.875000 0.750000
vt 0.937500 0.875000
vt 0.937500 0.875000
vt 0.875000 0.750000
vt 0.062500 0.875000
vt 0.125000 0.750000
vt 0.125000 0.750000
vt 0.062500 0.875000
vt 0.125000 0.750000
vt 0.250000 0.750000
vt 0.250000 0.750000
vt 0.125000 0.750000
vt 0.250000 0.750000
vt 0.375000 0.750000
vt 0.375000 0.750000
vt 0.250000 0.750000
vt 0.375000 0.750000
vt 0.437500 0.875000
vt 0.437500 0.875000
vt 0.375000 0.750000
vt 0.562500 0.875000
vt 0.625000 0.750000
vt 0.625000 0.750000
vt 0.562500 0.875000
vt 0.625000 0.750000
vt 0.750000 0.750000
vt 0.750000 0.750000
vt 0.625000 0.750000
vt 0.750000 0.750000
vt 0.875000 0.750000
vt 0.875000 0.750000
vt 0.750000 0.750000
vt 0.875000 0.750000
vt 0.937500 0.875000
vt 0.937500 0.875000
vt 0.875000 0.750000
vt 0.062500 0.875000
vt 0.125000 0.750000
vt 0.125000 0.750000
vt 0.062500 0.875000
vt 0.125000 0.750000
vt 0.250000 0.750000
vt 0.250000 0.750000
vt 0.125000 0.750000
vt 0.250000 0.750000
vt 0.375000 0.750000
vt 0.375000 0.750000
vt 0.250000 0.750000
vt 0.375000 0.750000
vt 0.437500 0.875000
vt 0.437500 0.875000
vt 0.375000 0.750000
vt 0.562500 0.875000
vt 0.625000 0.750000
vt 0.625000 0.750000
vt 0.562500 0.875000
vt 0.625000 0.750000
vt 0.750000 0.750000
vt 0.750000 0.750000
vt 0.625000 0.750000
vt 0.750000 0.750000
vt 0.875000 0.750000
vt 0.875000 0.750000
vt 0.937500 0.875000
vt 0.062500 0.875000
vt 0.125000 0.750000
vt 0.125000 0.750000
vt 0.250000 0.750000
vt 0.250000 0.750000
vt 0.375000 0.750000
vt 0.375000 0.750000
vt 0.437500 0.875000
vt 0.562500 0.875000
vt 0.625000 0.750000
vt 0.625000 0.750000
vt 0.750000 0.750000
vn -0.068519 0.997424 0.021248
vn -0.068519 0.997424 0.021248
vn -0.068519 0.997424 0.021248
vn -0.068519 0.997424 0.021248
vn 0.560112 0.828417 0.000000
vn 0.978659 0.205491 0.000000
vn 0.671189 0.168897 -0.721789
vn 0.671189 0.168897 -0.721789
vn 0.335916 0.812339 -0.476723
vn 0.296490 0.901770 -0.314490
vn 0.560112 0.828417 0.000000
vn -0.193093 0.919466 -0.342487
vn 0.335916 0.812339 -0.476723
vn -0.154809 0.737344 -0.657539
vn -0.207200 0.978298 -0.001300
vn -0.207105 0.978024 0.024001
vn -0.331898 0.943294 0.006400
vn -0.336484 0.941656 -0.007900
vn -0.193093 0.919466 -0.342487
vn -0.154809 0.737344 -0.657539
vn -0.634308 0.608608 -0.476706
vn -0.193093 0.919466 -0.342487
vn -0.634308 0.608608 -0.476706
vn -0.634102 0.706402 -0.314501
vn -0.845992 0.533195 0.000000
vn -0.682414 -0.115302 -0.721815
vn -0.978659 -0.205491 0.000000
vn -0.205408 0.978440 -0.021501
vn -0.207200 0.978298 -0.001300
vn -0.336484 0.941656 -0.007900
vn -0.357913 0.933733 0.006400
vn -0.845992 0.533195 0.000000
vn -0.978659 -0.205491 0.000000
vn -0.682414 -0.115302 0.721815
vn -0.682414 -0.115302 0.721815
vn -0.634308 0.608608 0.476706
vn -0.634102 0.706402 0.314501
vn -0.845992 0.533195 0.000000
vn -0.193093 0.919466 0.342487
vn -0.634308 0.608608 0.476706
vn -0.154809 0.737344 0.657539
vn -0.205408 0.978440 -0.021501
vn -0.047902 0.998832 0.006400
vn -0.062702 0.998032 -0.000000
vn -0.207200 0.978298 -0.001300
vn -0.193093 0.919466 0.342487
vn -0.154809 0.737344 0.657539
vn 0.335916 0.812339 0.476723
vn -0.193093 0.919466 0.342487
vn 0.335916 0.812339 0.476723
vn 0.296490 0.901770 0.314490
vn 0.560112 0.828417 0.000000
vn 0.671189 0.168897 0.721789
vn 0.978659 0.205491 0.000000
vn 0.205491 -0.978659 0.000000
vn 0.145302 -0.692012 -0.707112
vn 0.837320 -0.546713 0.000000
vn 0.145302 -0.692012 -0.707112
vn -0.017601 0.083604 -0.996344
vn 0.671189 0.168897 -0.721789
vn 0.145302 -0.692012 -0.707112
vn 0.671189 0.168897 -0.721789
vn 0.837320 -0.546713 0.000000
vn 0.837320 -0.546713 0.000000
vn 0.671189 0.168897 -0.721789
vn 0.978659 0.205491 0.000000
vn 0.205491 -0.978659 0.000000
vn -0.546713 -0.837320 0.000000
vn 0.145302 -0.692012 -0.707112
vn -0.546713 -0.837320 0.000000
vn -0.978659 -0.205491 0.000000
vn -0.682414 -0.115302 -0.721815
vn -0.546713 -0.837320 0.000000
vn -0.682414 -0.115302 -0.721815
vn 0.145302 -0.692012 -0.707112
vn 0.145302 -0.692012 -0.707112
vn -0.682414 -0.115302 -0.721815
vn -0.017601 0.083604 -0.996344
vn 0.205491 -0.978659 0.000000
vn 0.145302 -0.692012 0.707112
vn -0.546713 -0.837320 0.000000
vn 0.145302 -0.692012 0.707112
vn -0.017601 0.083604 0.996344
vn -0.682414 -0.115302 0.721815
vn 0.145302 -0.692012 0.707112
vn -0.682414 -0.115302 0.721815
vn -0.546713 -0.837320 0.000000
vn -0.546713 -0.837320 0.000000
vn -0.682414 -0.115302 0.721815
vn -0.978659 -0.205491 0.000000
vn 0.205491 -0.978659 0.000000
vn 0.837320 -0.546713 0.000000
vn 0.145302 -0.692012 0.707112
vn 0.837320 -0.546713 0.000000
vn 0.978659 0.205491 0.000000
vn 0.671189 0.168897 0.721789
vn 0.837320 -0.546713 0.000000
vn 0.671189 0.168897 0.721789
vn 0.145302 -0.692012 0.707112
vn 0.145302 -0.692012 0.707112
vn 0.671189 0.168897 0.721789
vn -0.017601 0.083604 0.996344
vn 0.295603 0.955311 0.000000
vn 0.560112 0.828417 0.000000
vn 0.296490 0.901770 -0.314490
vn 0.335916 0.812339 -0.476723
vn -0.193093 0.919466 -0.342487
vn 0.296490 0.901770 -0.314490
vn -0.017601 0.083604 -0.996344
vn -0.154809 0.737344 -0.657539
vn 0.335916 0.812339 -0.476723
vn 0.671189 0.168897 -0.721789
vn -0.634102 0.706402 -0.314501
vn -0.845992 0.533195 0.000000
vn -0.654908 0.755709 -0.000000
vn -0.682414 -0.115302 -0.721815
vn -0.634308 0.608608 -0.476706
vn -0.154809 0.737344 -0.657539
vn -0.017601 0.083604 -0.996344
vn -0.682414 -0.115302 -0.721815
vn -0.845992 0.533195 0.000000
vn -0.634102 0.706402 -0.314501
vn -0.634308 0.608608 -0.476706
vn -0.654908 0.755709 -0.000000
vn -0.845992 0.533195 0.000000
vn -0.634102 0.706402 0.314501
vn -0.634308 0.608608 0.476706
vn -0.193093 0.919466 0.342487
vn -0.634102 0.706402 0.314501
vn -0.017601 0.083604 0.996344
vn -0.154809 0.737344 0.657539
vn -0.634308 0.608608 0.476706
vn -0.682414 -0.115302 0.721815
vn 0.296490 0.901770 0.314490
vn 0.560112 0.828417 0.000000
vn 0.295603 0.955311 0.000000
vn 0.671189 0.168897 0.721789
vn 0.335916 0.812339 0.476723
vn -0.154809 0.737344 0.657539
vn -0.017601 0.083604 0.996344
vn 0.671189 0.168897 0.721789
vn 0.560112 0.828417 0.000000
vn 0.296490 0.901770 0.314490
vn 0.335916 0.812339 0.476723
vn -0.510376 -0.296386 -0.807262
vn -0.510376 -0.296386 -0.807262
vn -0.510376 -0.296386 -0.807262
vn -0.500084 -0.286891 -0.817074
vn -0.910886 -0.412193 0.019600
vn -0.910886 -0.412193 0.019600
vn -0.910886 -0.412193 0.019600
vn -0.911775 -0.410689 0.001100
vn -0.912159 -0.409382 -0.019299
vn -0.912159 -0.409382 -0.019299
vn -0.912159 -0.409382 -0.019299
vn -0.911056 -0.412280 -0.001100
vn -0.512293 -0.287696 0.809189
vn -0.512293 -0.287696 0.809189
vn -0.512293 -0.287696 0.809189
vn -0.498093 -0.291696 0.816589
vn 0.586475 -0.066097 0.807266
vn 0.586475 -0.066097 0.807266
vn 0.586475 -0.066097 0.807266
vn 0.573269 -0.061497 0.817056
vn 0.999747 -0.011001 -0.019601
vn 0.999747 -0.011001 -0.019601
vn 0.999747 -0.011001 -0.019601
vn 0.999956 -0.009300 -0.001100
vn 0.999783 -0.007900 0.019300
vn 0.999783 -0.007900 0.019300
vn 0.999783 -0.007900 0.019300
vn 0.999939 -0.011000 0.001100
vn 0.584711 -0.057301 -0.809215
vn 0.584711 -0.057301 -0.809215
vn 0.584711 -0.057301 -0.809215
vn 0.573379 -0.066698 -0.816571
vn -0.326807 0.945020 -0.011600
vn -0.326807 0.945020 -0.011600
vn -0.326807 0.945020 -0.011600
vn -0.394398 0.913995 -0.095200
vn -0.327511 0.944832 -0.005300
vn -0.327511 0.944832 -0.005300
vn -0.327511 0.944832 -0.005300
vn -0.330709 0.943725 -0.003800
vn -0.329989 0.943970 0.005300
vn -0.329989 0.943970 0.005300
vn -0.329989 0.943970 0.005300
vn -0.327513 0.944839 0.003800
vn -0.379809 0.920122 0.095502
vn -0.379809 0.920122 0.095502
vn -0.379809 0.920122 0.095502
vn -0.333395 0.942786 -0.001700
vn -0.080896 0.996655 0.011599
vn -0.080896 0.996655 0.011599
vn -0.080896 0.996655 0.011599
vn -0.006500 0.995437 0.095204
vn -0.080197 0.996765 0.005300
vn -0.080197 0.996765 0.005300
vn -0.080197 0.996765 0.005300
vn -0.076902 0.997031 0.003800
vn -0.077598 0.996971 -0.005300
vn -0.077598 0.996971 -0.005300
vn -0.077598 0.996971 -0.005300
vn -0.080198 0.996772 -0.003800
vn -0.022399 0.995178 -0.095498
vn -0.022399 0.995178 -0.095498
vn -0.022399 0.995178 -0.095498
vn -0.073897 0.997264 0.001700
vn 0.512297 0.254298 0.820295
vn 0.512297 0.254298 0.820295
vn 0.512297 0.254298 0.820295
vn 0.510881 0.255291 0.820870
vn 0.938897 0.344199 -0.000700
vn 0.938897 0.344199 -0.000700
vn 0.938897 0.344199 -0.000700
vn 0.938897 0.344199 -0.000800
vn 0.938897 0.344199 0.000700
vn 0.938897 0.344199 0.000700
vn 0.938897 0.344199 0.000700
vn 0.938897 0.344199 0.000800
vn 0.511900 0.255400 -0.820201
vn 0.511900 0.255400 -0.820201
vn 0.511900 0.255400 -0.820201
vn 0.511378 0.253989 -0.820964
vn -0.571303 0.026700 -0.820305
vn -0.571303 0.026700 -0.820305
vn -0.571303 0.026700 -0.820305
vn -0.570392 0.028200 -0.820888
vn -0.998045 -0.062503 0.000700
vn -0.998045 -0.062503 0.000700
vn -0.998045 -0.062503 0.000700
vn -0.998045 -0.062503 0.000800
vn -0.998045 -0.062503 -0.000700
vn -0.998045 -0.062503 -0.000700
vn -0.998045 -0.062503 -0.000700
vn -0.998045 -0.062503 -0.000800
vn -0.571399 0.027900 0.820198
vn -0.571399 0.027900 0.820198
vn -0.571399 0.027900 0.820198
vn -0.570300 0.026800 0.821000
s off
g GeoSphere005
usemtl ___Default2
f 1/1/1 2/2/2 3/3/3 4/4/4
f 5/5/5 6/6/6 7/7/7
f 7/7/8 8/8/9 9/42/10 5/5/11
f 10/43/12 8/8/13 11/9/14
f 2/10/15 1/1/16 12/11/17 13/12/18
f 10/44/19 11/9/20 14/13/21
f 10/45/22 14/13/23 15/46/24
f 16/14/25 17/15/26 18/16/27
f 19/17/28 2/18/29 13/19/30 20/20/31
f 16/21/32 18/22/33 21/23/34
f 21/23/35 22/24/36 23/47/37 16/21/38
f 24/48/39 22/24/40 25/25/41
f 19/17/42 26/26/43 3/27/44 2/28/45
f 24/49/46 25/25/47 27/29/48
f 24/50/49 27/29/50 28/51/51
f 5/5/52 29/30/53 6/6/54
f 30/31/55 31/32/56 32/33/57
f 31/32/58 33/34/59 7/7/60
f 31/32/61 7/7/62 32/33/63
f 32/33/64 7/7/65 6/6/66
f 30/35/67 34/36/68 31/32/69
f 34/36/70 18/16/71 17/15/72
f 34/36/73 17/15/74 31/32/75
f 31/32/76 17/15/77 33/34/78
f 30/37/79 35/38/80 34/39/81
f 35/38/82 36/40/83 21/23/84
f 35/38/85 21/23/86 34/39/87
f 34/39/88 21/23/89 18/22/90
f 30/41/91 32/33/92 35/38/93
f 32/33/94 6/6/95 29/30/96
f 32/33/97 29/30/98 35/38/99
f 35/38/100 29/30/101 36/40/102
f 37/52/103 5/5/104 9/53/105
f 8/8/106 10/54/107 9/55/108
f 33/34/109 11/9/110 8/8/111 7/7/112
f 15/56/113 16/14/114 38/57/115
f 17/15/116 14/13/117 11/9/118 33/34/119
f 17/15/120 16/14/121 15/58/122 14/13/123
f 38/59/124 16/21/125 23/60/126
f 22/24/127 24/61/128 23/62/129
f 36/40/130 25/25/131 22/24/132 21/23/133
f 28/63/134 5/5/135 37/64/136
f 29/30/137 27/29/138 25/25/139 36/40/140
f 29/30/141 5/5/142 28/65/143 27/29/144
f 10/66/145 15/67/146 39/68/147 40/69/148
f 15/70/149 38/71/150 41/72/151 39/73/152
f 38/74/153 23/75/154 42/76/155 41/77/156
f 23/78/157 24/79/158 43/80/159 42/81/160
f 24/82/161 28/83/162 44/84/163 43/85/164
f 28/86/165 37/87/166 45/88/167 44/89/168
f 37/90/169 9/91/170 46/92/171 45/93/172
f 9/94/173 10/95/174 40/96/175 46/97/176
f 40/98/177 39/99/178 47/100/179 48/101/180
f 39/102/181 41/103/182 49/104/183 47/105/184
f 41/106/185 42/107/186 50/108/187 49/109/188
f 42/110/189 43/111/190 51/112/191 50/113/192
f 43/114/193 44/115/194 52/116/195 51/117/196
f 44/118/197 45/119/198 53/120/199 52/121/200
f 45/122/201 46/123/202 54/124/203 53/125/204
f 46/126/205 40/127/206 48/128/207 54/129/208
f 48/130/209 47/131/210 12/11/211 1/1/212
f 47/132/213 49/133/214 13/12/215 12/11/216
f 49/134/217 50/135/218 20/20/219 13/19/220
f 50/136/221 51/137/222 19/17/223 20/20/224
f 51/138/225 52/139/226 26/26/227 19/17/228
f 52/140/229 53/141/230 3/27/231 26/26/232
f 53/142/233 54/143/234 4/4/235 3/3/236
f 54/144/237 48/145/238 1/1/239 4/4/240
